<svg width="16" height="16" viewBox="0 0 16 16" fill="none" xmlns="http://www.w3.org/2000/svg">
<path d="M6.66669 1.33334V2.66668" stroke="#011B35" stroke-opacity="0.8" stroke-width="1.33333" stroke-linecap="round" stroke-linejoin="round"/>
<path d="M9.33331 1.33334V2.66668" stroke="#011B35" stroke-opacity="0.8" stroke-width="1.33333" stroke-linecap="round" stroke-linejoin="round"/>
<path d="M10.6667 5.33334C10.8435 5.33334 11.013 5.40358 11.1381 5.52861C11.2631 5.65363 11.3333 5.8232 11.3333 6.00001V11.3333C11.3333 12.0406 11.0524 12.7189 10.5523 13.219C10.0522 13.7191 9.37391 14 8.66667 14H4.66667C3.95942 14 3.28115 13.7191 2.78105 13.219C2.28095 12.7189 2 12.0406 2 11.3333V6.00001C2 5.8232 2.07024 5.65363 2.19526 5.52861C2.32029 5.40358 2.48986 5.33334 2.66667 5.33334H12C12.7072 5.33334 13.3855 5.61429 13.8856 6.11439C14.3857 6.61449 14.6667 7.29277 14.6667 8.00001C14.6667 8.70725 14.3857 9.38553 13.8856 9.88563C13.3855 10.3857 12.7072 10.6667 12 10.6667H11.3333" stroke="#011B35" stroke-opacity="0.8" stroke-width="1.33333" stroke-linecap="round" stroke-linejoin="round"/>
<path d="M4 1.33334V2.66668" stroke="#011B35" stroke-opacity="0.8" stroke-width="1.33333" stroke-linecap="round" stroke-linejoin="round"/>
</svg>
