<svg width="16" height="16" viewBox="0 0 16 16" fill="none" xmlns="http://www.w3.org/2000/svg">
<path d="M4.66669 7.33334L7.38669 14.2333C7.43792 14.3536 7.52337 14.4561 7.63242 14.5282C7.74147 14.6003 7.8693 14.6387 8.00002 14.6387C8.13074 14.6387 8.25857 14.6003 8.36762 14.5282C8.47667 14.4561 8.56212 14.3536 8.61335 14.2333L11.3334 7.33334" stroke="#011B35" stroke-opacity="0.8" stroke-width="1.33333" stroke-linecap="round" stroke-linejoin="round"/>
<path d="M11.3334 4.66668C11.3334 3.78262 10.9822 2.93478 10.357 2.30965C9.73192 1.68453 8.88408 1.33334 8.00002 1.33334C7.11597 1.33334 6.26812 1.68453 5.643 2.30965C5.01788 2.93478 4.66669 3.78262 4.66669 4.66668" stroke="#011B35" stroke-opacity="0.8" stroke-width="1.33333" stroke-linecap="round" stroke-linejoin="round"/>
<path d="M11.3333 4.66666C11.6869 4.66666 12.0261 4.80713 12.2761 5.05718C12.5262 5.30723 12.6666 5.64637 12.6666 5.99999C12.6666 6.35361 12.5262 6.69275 12.2761 6.9428C12.0261 7.19285 11.6869 7.33332 11.3333 7.33332H4.66665C4.31302 7.33332 3.97389 7.19285 3.72384 6.9428C3.47379 6.69275 3.33331 6.35361 3.33331 5.99999C3.33331 5.64637 3.47379 5.30723 3.72384 5.05718C3.97389 4.80713 4.31302 4.66666 4.66665 4.66666" stroke="#011B35" stroke-opacity="0.8" stroke-width="1.33333" stroke-linecap="round" stroke-linejoin="round"/>
</svg>
